<svg width="188" height="37" viewBox="0 0 188 37" fill="none" xmlns="http://www.w3.org/2000/svg">
<path d="M20.2823 15.232H15.4853C15.3977 14.6115 15.2188 14.0604 14.9486 13.5786C14.6785 13.0896 14.3317 12.6735 13.9082 12.3304C13.4847 11.9874 12.9955 11.7246 12.4406 11.542C11.893 11.3596 11.298 11.2683 10.6555 11.2683C9.49451 11.2683 8.48328 11.5566 7.62172 12.1333C6.76016 12.7027 6.09208 13.5348 5.61749 14.6298C5.1429 15.7174 4.90561 17.0386 4.90561 18.5934C4.90561 20.192 5.1429 21.5351 5.61749 22.6228C6.09938 23.7104 6.77111 24.5316 7.63267 25.0864C8.49424 25.6412 9.49091 25.9185 10.6226 25.9185C11.2578 25.9185 11.8455 25.8346 12.3859 25.6667C12.9335 25.4988 13.419 25.2542 13.8425 24.933C14.2659 24.6046 14.6165 24.2068 14.8938 23.7396C15.1786 23.2725 15.3758 22.7396 15.4853 22.141L20.2823 22.1629C20.1582 23.1921 19.8478 24.1848 19.3514 25.1411C18.8622 26.09 18.2014 26.9405 17.369 27.6923C16.544 28.4368 15.5583 29.0281 14.412 29.4661C13.2729 29.8968 11.9843 30.1121 10.5459 30.1121C8.54534 30.1121 6.75651 29.6596 5.17942 28.7544C3.60962 27.8493 2.36839 26.5389 1.45572 24.8236C0.55034 23.1082 0.0976562 21.0315 0.0976562 18.5934C0.0976562 16.148 0.557649 14.0677 1.47762 12.3523C2.39759 10.6369 3.64613 9.33027 5.22322 8.43243C6.80032 7.52728 8.57455 7.07471 10.5459 7.07471C11.8455 7.07471 13.0503 7.2572 14.1601 7.62217C15.2772 7.98716 16.2666 8.52002 17.1281 9.22078C17.9897 9.91424 18.6906 10.7646 19.2309 11.7719C19.7785 12.7793 20.129 13.9326 20.2823 15.232ZM23.4516 29.8055V7.38129H28.1938V25.8966H37.8097V29.8055H23.4516ZM60.4573 18.5934C60.4573 21.0388 59.9936 23.1191 59.0664 24.8346C58.1464 26.5499 56.8905 27.8602 55.2988 28.7653C53.7144 29.6632 51.9329 30.1121 49.9543 30.1121C47.961 30.1121 46.1721 29.6596 44.5877 28.7544C43.0033 27.8493 41.7512 26.5389 40.8312 24.8236C39.9112 23.1082 39.4513 21.0315 39.4513 18.5934C39.4513 16.148 39.9112 14.0677 40.8312 12.3523C41.7512 10.6369 43.0033 9.33027 44.5877 8.43243C46.1721 7.52728 47.961 7.07471 49.9543 7.07471C51.9329 7.07471 53.7144 7.52728 55.2988 8.43243C56.8905 9.33027 58.1464 10.6369 59.0664 12.3523C59.9936 14.0677 60.4573 16.148 60.4573 18.5934ZM55.6493 18.5934C55.6493 17.0094 55.412 15.6736 54.9375 14.586C54.4701 13.4983 53.8094 12.6735 52.9551 12.1114C52.1008 11.5493 51.1005 11.2683 49.9543 11.2683C48.8079 11.2683 47.8076 11.5493 46.9534 12.1114C46.0992 12.6735 45.4347 13.4983 44.9601 14.586C44.4929 15.6736 44.2592 17.0094 44.2592 18.5934C44.2592 20.1774 44.4929 21.5132 44.9601 22.6009C45.4347 23.6885 46.0992 24.5134 46.9534 25.0754C47.8076 25.6375 48.8079 25.9185 49.9543 25.9185C51.1005 25.9185 52.1008 25.6375 52.9551 25.0754C53.8094 24.5134 54.4701 23.6885 54.9375 22.6009C55.412 21.5132 55.6493 20.1774 55.6493 18.5934ZM66.5262 7.38129L71.9474 24.4184H72.1555L77.5877 7.38129H82.8446L75.1125 29.8055H69.0013L61.2582 7.38129H66.5262ZM86.1975 29.8055H81.1157L88.8588 7.38129H94.9701L102.702 29.8055H97.6205L92.0021 12.5056H91.8268L86.1975 29.8055ZM85.8798 20.9913H97.8833V24.6922H85.8798V20.9913Z" fill="url(#paint0_linear_7839_10065)"/>
<path d="M109.414 11.2902V7.38123H127.835V11.2902H120.969V29.8055H116.281V11.2902H109.414ZM139.049 22.6446V12.9873H143.715V29.8055H139.235V26.7506H139.06C138.681 27.736 138.049 28.528 137.166 29.1266C136.29 29.7252 135.22 30.0245 133.956 30.0245C132.833 30.0245 131.843 29.769 130.988 29.258C130.134 28.7471 129.466 28.0207 128.985 27.0791C128.51 26.1374 128.269 25.0097 128.262 23.6957V12.9873H132.927V22.8635C132.934 23.8563 133.201 24.641 133.727 25.2177C134.252 25.7944 134.957 26.0826 135.841 26.0826C136.403 26.0826 136.928 25.955 137.418 25.6995C137.907 25.4367 138.301 25.0498 138.6 24.5388C138.907 24.0279 139.056 23.3965 139.049 22.6446ZM156.164 12.9873V16.4911H146.033V12.9873H156.164ZM148.332 8.95793H152.999V24.6374C152.999 25.068 153.064 25.4038 153.195 25.6447C153.326 25.8783 153.509 26.0426 153.743 26.1374C153.983 26.2323 154.261 26.2798 154.576 26.2798C154.795 26.2798 155.013 26.2615 155.232 26.225C155.451 26.1812 155.619 26.1484 155.736 26.1265L156.47 29.5974C156.237 29.6704 155.908 29.7544 155.484 29.8493C155.061 29.9514 154.546 30.0135 153.94 30.0354C152.816 30.0792 151.83 29.9295 150.983 29.5864C150.144 29.2434 149.49 28.7106 149.023 27.9878C148.555 27.2652 148.325 26.3527 148.332 25.2506V8.95793ZM166.392 30.1339C164.69 30.1339 163.219 29.7726 161.977 29.0499C160.744 28.32 159.791 27.3054 159.119 26.0061C158.447 24.6995 158.112 23.1847 158.112 21.4621C158.112 19.7248 158.447 18.2065 159.119 16.9072C159.791 15.6005 160.744 14.5859 161.977 13.8632C163.219 13.1333 164.69 12.7683 166.392 12.7683C168.092 12.7683 169.56 13.1333 170.794 13.8632C172.036 14.5859 172.992 15.6005 173.663 16.9072C174.335 18.2065 174.672 19.7248 174.672 21.4621C174.672 23.1847 174.335 24.6995 173.663 26.0061C172.992 27.3054 172.036 28.32 170.794 29.0499C169.56 29.7726 168.092 30.1339 166.392 30.1339ZM166.413 26.5207C167.187 26.5207 167.833 26.3017 168.351 25.8637C168.87 25.4184 169.261 24.8125 169.523 24.0461C169.794 23.2797 169.929 22.4073 169.929 21.4292C169.929 20.451 169.794 19.5788 169.523 18.8124C169.261 18.0458 168.87 17.44 168.351 16.9947C167.833 16.5495 167.187 16.3269 166.413 16.3269C165.632 16.3269 164.975 16.5495 164.442 16.9947C163.916 17.44 163.518 18.0458 163.248 18.8124C162.985 19.5788 162.853 20.451 162.853 21.4292C162.853 22.4073 162.985 23.2797 163.248 24.0461C163.518 24.8125 163.916 25.4184 164.442 25.8637C164.975 26.3017 165.632 26.5207 166.413 26.5207ZM177.473 29.8055V12.9873H181.996V15.9217H182.172C182.478 14.8779 182.993 14.0895 183.716 13.5566C184.439 13.0165 185.272 12.7464 186.213 12.7464C186.447 12.7464 186.698 12.761 186.969 12.7902C187.239 12.8194 187.477 12.8596 187.68 12.9106V17.0495C187.461 16.9838 187.159 16.9254 186.771 16.8743C186.385 16.8232 186.03 16.7977 185.71 16.7977C185.023 16.7977 184.41 16.9472 183.869 17.2465C183.337 17.5385 182.913 17.9474 182.599 18.4729C182.292 18.9985 182.139 19.6044 182.139 20.2905V29.8055H177.473Z" fill="#42444B"/>
<defs>
<linearGradient id="paint0_linear_7839_10065" x1="-1.45753" y1="18.5" x2="104.43" y2="18.5" gradientUnits="userSpaceOnUse">
<stop stop-color="#ED33A6"/>
<stop offset="0.495192" stop-color="#933FF0"/>
<stop offset="1" stop-color="#00CEFF"/>
</linearGradient>
</defs>
</svg>
