<svg width="26" height="26" viewBox="0 0 26 26" fill="none" xmlns="http://www.w3.org/2000/svg">
<path fill-rule="evenodd" clip-rule="evenodd" d="M17.3334 2.16634C17.3334 1.56803 16.8484 1.08301 16.2501 1.08301C15.6518 1.08301 15.1667 1.56803 15.1667 2.16634V4.33301C15.1667 4.93132 15.6518 5.41634 16.2501 5.41634C16.8484 5.41634 17.3334 4.93132 17.3334 4.33301V2.16634ZM17.3334 15.1663C17.3334 14.568 16.8484 14.083 16.2501 14.083C15.6518 14.083 15.1667 14.568 15.1667 15.1663V17.333C15.1667 17.9313 15.6518 18.4163 16.2501 18.4163C16.8484 18.4163 17.3334 17.9313 17.3334 17.333V15.1663ZM7.58342 9.74967C7.58342 9.15137 8.06844 8.66634 8.66675 8.66634H10.8334C11.4317 8.66634 11.9167 9.15137 11.9167 9.74967C11.9167 10.348 11.4317 10.833 10.8334 10.833H8.66675C8.06844 10.833 7.58342 10.348 7.58342 9.74967ZM21.6667 8.66634C21.0684 8.66634 20.5834 9.15137 20.5834 9.74967C20.5834 10.348 21.0684 10.833 21.6667 10.833H23.8334C24.4317 10.833 24.9167 10.348 24.9167 9.74967C24.9167 9.15137 24.4317 8.66634 23.8334 8.66634H21.6667ZM18.5174 12.0168C18.9405 11.5937 19.6264 11.5937 20.0495 12.0168L21.3495 13.3168C21.7726 13.7398 21.7726 14.4258 21.3495 14.8488C20.9264 15.2719 20.2405 15.2719 19.8174 14.8488L18.5174 13.5488C18.0944 13.1258 18.0944 12.4398 18.5174 12.0168ZM21.3495 6.18237C21.7726 5.75931 21.7726 5.07338 21.3495 4.65031C20.9264 4.22724 20.2405 4.22724 19.8174 4.65031L18.5174 5.95031C18.0944 6.37338 18.0944 7.05931 18.5174 7.48237C18.9405 7.90544 19.6264 7.90544 20.0495 7.48237L21.3495 6.18237ZM13.7661 12.2336C14.1892 12.6567 14.1892 13.3426 13.7661 13.7657L4.01611 23.5157C3.59305 23.9388 2.90712 23.9388 2.48405 23.5157C2.06098 23.0926 2.06098 22.4067 2.48405 21.9836L12.234 12.2336C12.6571 11.8106 13.343 11.8106 13.7661 12.2336ZM12.6828 4.65031C12.2597 4.22724 11.5738 4.22724 11.1507 4.65031C10.7276 5.07338 10.7276 5.75931 11.1507 6.18237L12.4507 7.48237C12.8738 7.90544 13.5597 7.90544 13.9828 7.48237C14.4058 7.05931 14.4058 6.37338 13.9828 5.95031L12.6828 4.65031Z" fill="url(#paint0_linear_7037_1406)"/>
<defs>
<linearGradient id="paint0_linear_7037_1406" x1="2.16675" y1="12.458" x2="24.9167" y2="12.458" gradientUnits="userSpaceOnUse">
<stop stop-color="#3A49FA"/>
<stop offset="1" stop-color="#E965E3"/>
</linearGradient>
</defs>
</svg>
