<svg width="51" height="51" viewBox="0 0 51 51" fill="none" xmlns="http://www.w3.org/2000/svg">
<g clip-path="url(#clip0_7846_10184)">
<path d="M43.0093 48.8547C39.8228 49.4996 36.5392 49.4996 33.3527 48.8547C26.2777 47.4404 26.4515 38.583 27.5934 32.9881C29.1697 26.314 37.6101 26.5373 43.0218 27.4925C50.0471 28.8943 49.8733 37.665 48.7562 43.2226C48.4608 44.6232 47.7575 45.9052 46.735 46.9073C45.7124 47.9094 44.4162 48.587 43.0093 48.8547Z" fill="#DCC0FF" stroke="#DCC0FF" stroke-width="2.15388"/>
<path d="M16.9438 48.8541C13.7572 49.4994 10.4737 49.4994 7.2871 48.8541C0.212159 47.4392 0.38593 38.5768 1.52785 32.9914C3.1042 26.3137 11.5445 26.537 16.9562 27.4928C23.9815 28.8954 23.8077 37.6708 22.6906 43.219C22.3937 44.6196 21.69 45.9015 20.6677 46.9039C19.6454 47.9064 18.35 48.5848 16.9438 48.8541Z" fill="#DCC0FF" stroke="#DCC0FF" stroke-width="2.15388"/>
<path d="M43.0093 22.801C39.8228 23.4463 36.5392 23.4463 33.3527 22.801C26.2777 21.3861 26.4515 12.5237 27.5934 6.92582C29.1697 0.24807 37.6101 0.47149 43.0218 1.42723C50.0471 2.82981 49.8733 11.6052 48.7562 17.1658C48.4608 18.5672 47.7575 19.8498 46.735 20.8525C45.7124 21.8553 44.4162 22.5331 43.0093 22.801Z" fill="#DCC0FF" stroke="#DCC0FF" stroke-width="2.15388" stroke-linecap="round" stroke-linejoin="round"/>
<path d="M16.9438 22.801C13.7572 23.4463 10.4737 23.4463 7.2871 22.801C0.212159 21.3861 0.38593 12.5237 1.52785 6.92582C3.1042 0.24807 11.5445 0.47149 16.9562 1.42723C23.9815 2.82981 23.8077 11.6052 22.6906 17.1658C22.3952 18.5672 21.6919 19.8498 20.6694 20.8525C19.6468 21.8553 18.3507 22.5331 16.9438 22.801Z" fill="#DCC0FF" stroke="#DCC0FF" stroke-width="2.15388" stroke-linecap="round" stroke-linejoin="round"/>
<path d="M12.91 7.02148C13.4666 7.02148 13.8781 7.45715 13.9749 7.62657C14.6526 8.82464 16.1653 12.9634 16.7583 14.9602C16.8914 15.5048 16.5768 16.0615 16.0685 16.1946C15.3303 16.3882 14.8825 15.9646 14.7373 15.5048C14.3017 14.0889 13.1762 10.3979 12.9221 9.88959C12.801 10.1437 12.4622 11.1724 12.1112 12.322H12.9826C13.4303 12.322 13.6724 12.8545 13.6724 13.3507C13.6724 13.7742 13.515 14.3551 12.9705 14.3551H11.4699C11.3367 14.8029 11.2036 15.2143 11.1189 15.5048C10.9858 15.9646 10.5501 16.3882 9.84823 16.2067C9.19478 16.0493 8.96485 15.5169 9.11007 14.9602C9.70301 12.9634 11.2036 8.82464 11.9055 7.62657C11.9902 7.45715 12.3896 7.02148 12.91 7.02148Z" fill="white"/>
<path d="M38.455 10.4463H38.806C39.8225 10.4463 40.1493 10.1679 40.1493 9.69596C40.1493 9.2724 39.8588 9.04247 39.0359 9.04247H37.6926C37.4143 9.04247 37.4022 9.30871 37.4022 9.39342C37.3175 10.9787 37.3054 12.5036 37.3417 13.8347C37.3417 13.9437 37.3538 14.222 37.6563 14.222H39.2174C40.0646 14.222 40.3913 13.9073 40.3913 13.3628C40.3913 12.8303 40.0041 12.4672 38.8423 12.4672H38.455C38.0073 12.4672 37.7652 11.8743 37.7652 11.4386C37.7652 10.9787 38.0436 10.4463 38.455 10.4463ZM40.6696 11.366C41.9524 11.6806 42.4486 12.6851 42.4486 13.5685C42.4486 15.1296 41.2263 16.243 39.2053 16.243H36.313C35.7927 16.243 35.3449 15.8557 35.3207 15.299C35.2602 14.222 35.2481 9.04247 35.4054 8.03803C35.5022 7.43294 35.9742 7.02148 36.4583 7.02148H38.9633C40.9722 7.02148 42.2066 7.94121 42.2066 9.52654C42.2066 10.3131 41.783 11.2208 40.6696 11.366Z" fill="white"/>
<path d="M13.5875 32.8448C13.9626 32.8448 14.4346 32.8448 14.7735 32.8933C15.1849 32.9538 15.4391 33.4257 15.4149 33.934C15.4149 34.3455 15.1365 34.9626 14.5798 34.9384C14.2894 34.9263 13.89 34.9021 13.648 34.9021C11.7722 34.9021 11.0945 35.7493 11.0945 37.5766C11.0945 39.2587 11.9538 40.2269 13.2365 40.2269C13.8416 40.2269 14.2894 40.0817 14.6161 39.9364C15.0155 39.7549 15.669 40.0454 15.8142 40.6746C15.9352 41.2555 15.6206 41.6428 15.2817 41.8243C14.834 42.1026 14.0474 42.3205 13.2244 42.2963C10.4532 42.2963 9.0252 40.1059 9.0252 37.6008C9.0252 35.1079 10.3079 32.857 13.5875 32.8448Z" fill="white"/>
<path d="M38.4913 34.9747H37.7289C37.4143 34.9747 37.4022 35.241 37.4022 35.3257C37.3175 36.9231 37.3054 38.46 37.3417 39.8154C37.3538 39.9122 37.3538 40.1542 37.6442 40.1542H38.4913C39.6531 40.1542 40.3671 39.295 40.3671 37.5887C40.3671 35.7976 39.7257 34.9747 38.4913 34.9747ZM36.4341 32.9537H38.5155C41.3715 32.9537 42.4123 35.2531 42.4123 37.6008C42.4123 40.1542 40.9722 42.1752 38.5155 42.1752H36.3009C35.7927 42.1752 35.3449 41.8969 35.3207 41.3523C35.2602 40.2753 35.2481 34.8537 35.4054 33.8493C35.5022 33.2563 36.1315 32.9537 36.4341 32.9537Z" fill="white"/>
</g>
<defs>
<clipPath id="clip0_7846_10184">
<rect width="51" height="51" fill="white"/>
</clipPath>
</defs>
</svg>
