<svg width="54" height="54" viewBox="0 0 54 54" fill="none" xmlns="http://www.w3.org/2000/svg">
<path d="M45.4092 51.5673C42.052 52.2468 38.5925 52.2468 35.2353 51.5673C27.7814 50.0774 27.9645 40.7455 29.1675 34.851C30.8283 27.8194 39.7207 28.0547 45.4223 29.0611C52.8239 30.538 52.6409 39.7783 51.4639 45.6336C51.1527 47.1092 50.4118 48.4598 49.3345 49.5156C48.2571 50.5714 46.8915 51.2853 45.4092 51.5673Z" fill="#B2DAFF" stroke="#B2DAFF" stroke-width="2.15388"/>
<path d="M17.9473 51.5667C14.5901 52.2466 11.1306 52.2466 7.77338 51.5667C0.31946 50.076 0.502539 40.739 1.70563 34.8544C3.36641 27.819 12.2588 28.0544 17.9604 29.0614C25.362 30.539 25.1789 39.7844 24.002 45.6298C23.6892 47.1055 22.9478 48.456 21.8707 49.5121C20.7936 50.5682 19.4289 51.2829 17.9473 51.5667Z" fill="#B2DAFF" stroke="#B2DAFF" stroke-width="2.15388"/>
<path d="M45.4092 24.1183C42.052 24.7981 38.5925 24.7981 35.2353 24.1183C27.7814 22.6275 27.9645 13.2906 29.1675 7.39288C30.8283 0.357497 39.7207 0.592882 45.4223 1.59981C52.8239 3.0775 52.6409 12.3229 51.4639 18.1813C51.1527 19.6577 50.4118 21.0091 49.3345 22.0655C48.2571 23.1218 46.8915 23.8361 45.4092 24.1183Z" fill="#B2DAFF" stroke="#B2DAFF" stroke-width="2.15388" stroke-linecap="round" stroke-linejoin="round"/>
<path d="M17.9473 24.1183C14.5901 24.7981 11.1306 24.7981 7.77338 24.1183C0.31946 22.6275 0.502539 13.2906 1.70563 7.39288C3.36641 0.357497 12.2588 0.592882 17.9604 1.59981C25.362 3.0775 25.1789 12.3229 24.002 18.1813C23.6908 19.6577 22.9499 21.0091 21.8725 22.0655C20.7952 23.1218 19.4296 23.8361 17.9473 24.1183Z" fill="#B2DAFF" stroke="#B2DAFF" stroke-width="2.15388" stroke-linecap="round" stroke-linejoin="round"/>
<path d="M35.077 40.3077H45.5387" stroke="white" stroke-width="2.15388" stroke-linecap="round" stroke-linejoin="round"/>
<path d="M8.27051 37.6921L17.3329 42.9229L8.27051 37.6921Z" fill="white"/>
<path d="M8.27051 37.6921L17.3329 42.9229" stroke="white" stroke-width="2.15388" stroke-linecap="round" stroke-linejoin="round"/>
<path d="M12.7952 45.5383V35.0768V45.5383Z" fill="white"/>
<path d="M12.7952 45.5383V35.0768" stroke="white" stroke-width="2.15388" stroke-linecap="round" stroke-linejoin="round"/>
<path d="M17.4243 37.6921L8.36194 42.9229L17.4243 37.6921Z" fill="white"/>
<path d="M17.4243 37.6921L8.36194 42.9229" stroke="white" stroke-width="2.15388" stroke-linecap="round" stroke-linejoin="round"/>
<path d="M35.0785 12.8459H45.5401" stroke="white" stroke-width="2.15388" stroke-linecap="round" stroke-linejoin="round"/>
<path d="M40.3091 9.6145C40.4541 9.6145 40.5716 9.7322 40.5718 9.8772C40.5718 10.0223 40.4542 10.1399 40.3091 10.1399C40.1641 10.1397 40.0464 10.0222 40.0464 9.8772C40.0465 9.7323 40.1642 9.61467 40.3091 9.6145Z" fill="white" stroke="white" stroke-width="1.43592"/>
<path d="M40.3091 15.5515C40.4541 15.5515 40.5716 15.6692 40.5718 15.8142C40.5718 15.9593 40.4542 16.0769 40.3091 16.0769C40.1641 16.0767 40.0464 15.9592 40.0464 15.8142C40.0465 15.6693 40.1642 15.5517 40.3091 15.5515Z" fill="white" stroke="white" stroke-width="1.43592"/>
<path d="M7.61658 12.8459H18.0782" stroke="white" stroke-width="2.15388" stroke-linecap="round" stroke-linejoin="round"/>
<path d="M12.8475 7.61523V18.0768" stroke="white" stroke-width="2.15388" stroke-linecap="round" stroke-linejoin="round"/>
</svg>
