<svg width="24" height="24" viewBox="0 0 24 24" fill="none" xmlns="http://www.w3.org/2000/svg">
<path d="M19 3H5C3.89543 3 3 3.89543 3 5V19C3 20.1046 3.89543 21 5 21H19C20.1046 21 21 20.1046 21 19V5C21 3.89543 20.1046 3 19 3Z" fill="black"/>
<path d="M19 3H5C3.89543 3 3 3.89543 3 5V19C3 20.1046 3.89543 21 5 21H19C20.1046 21 21 20.1046 21 19V5C21 3.89543 20.1046 3 19 3Z" fill="url(#paint0_linear_531_6642)"/>
<path d="M12.7071 7.29289C12.3166 6.90237 11.6834 6.90237 11.2929 7.29289C10.9024 7.68342 10.9024 8.31658 11.2929 8.70711L13.5858 11H8C7.44772 11 7 11.4477 7 12C7 12.5523 7.44772 13 8 13H13.5858L11.2929 15.2929C10.9024 15.6834 10.9024 16.3166 11.2929 16.7071C11.6834 17.0976 12.3166 17.0976 12.7071 16.7071L16.7065 12.7077C16.7087 12.7056 16.7115 12.7027 16.7136 12.7005C16.9038 12.5069 16.9992 12.2551 17 12.003" fill="white"/>
<path d="M16.7136 11.2995C16.8063 11.3938 16.8764 11.502 16.9241 11.6172C16.8746 11.4979 16.8027 11.3902 16.7136 11.2995Z" fill="white"/>
<path d="M12.7071 7.29289L16.7065 11.2923L12.7071 7.29289Z" fill="white"/>
<defs>
<linearGradient id="paint0_linear_531_6642" x1="4.6885" y1="1.36331" x2="30.6995" y2="12.8633" gradientUnits="userSpaceOnUse">
<stop offset="0.9999" stop-color="#3748FA"/>
<stop offset="1" stop-color="#F065E2"/>
</linearGradient>
</defs>
</svg>
