<svg xmlns="http://www.w3.org/2000/svg" width="24" height="24" viewBox="0 0 24 24" fill="none">
  <path d="M17.0888 12.3909L13.0876 10.9124L11.6137 6.90811C11.5264 6.67099 11.3685 6.46635 11.1613 6.3218C10.954 6.17725 10.7074 6.09975 10.4548 6.09975C10.2021 6.09975 9.95552 6.17725 9.74828 6.3218C9.54104 6.46635 9.38313 6.67099 9.29584 6.90811L7.81266 10.9124L3.80836 12.3863C3.57124 12.4736 3.3666 12.6315 3.22205 12.8387C3.0775 13.046 3 13.2926 3 13.5452C3 13.7979 3.0775 14.0445 3.22205 14.2517C3.3666 14.459 3.57124 14.6169 3.80836 14.7042L7.81266 16.1873L9.28654 20.1916C9.37382 20.4288 9.53173 20.6334 9.73897 20.7779C9.94621 20.9225 10.1928 21 10.4455 21C10.6981 21 10.9447 20.9225 11.152 20.7779C11.3592 20.6334 11.5171 20.4288 11.6044 20.1916L13.0876 16.1873L17.0919 14.7135C17.329 14.6262 17.5336 14.4683 17.6782 14.261C17.8227 14.0538 17.9002 13.8072 17.9002 13.5545C17.9002 13.3019 17.8227 13.0553 17.6782 12.848C17.5336 12.6408 17.329 12.4829 17.0919 12.3956L17.0888 12.3909ZM12.3894 15.1184C12.3052 15.1494 12.2287 15.1984 12.1652 15.2619C12.1017 15.3254 12.0528 15.4019 12.0217 15.4861L10.4501 19.744L8.88161 15.4892C8.85061 15.4041 8.80135 15.3268 8.7373 15.2627C8.67324 15.1986 8.59593 15.1494 8.51081 15.1184L4.25595 13.5499L8.51081 11.9814C8.59593 11.9504 8.67324 11.9011 8.7373 11.837C8.80135 11.773 8.85061 11.6957 8.88161 11.6106L10.4501 7.3557L12.0186 11.6106C12.0497 11.6948 12.0986 11.7713 12.1621 11.8348C12.2256 11.8983 12.3021 11.9472 12.3863 11.9783L16.6443 13.5499L12.3894 15.1184ZM12.9324 5.48232C12.9324 5.31774 12.9978 5.15989 13.1142 5.04351C13.2306 4.92713 13.3884 4.86174 13.553 4.86174H14.7942V3.62058C14.7942 3.45599 14.8596 3.29815 14.976 3.18176C15.0923 3.06538 15.2502 3 15.4148 3C15.5794 3 15.7372 3.06538 15.8536 3.18176C15.97 3.29815 16.0354 3.45599 16.0354 3.62058V4.86174H17.2765C17.4411 4.86174 17.599 4.92713 17.7153 5.04351C17.8317 5.15989 17.8971 5.31774 17.8971 5.48232C17.8971 5.64691 17.8317 5.80476 17.7153 5.92114C17.599 6.03752 17.4411 6.1029 17.2765 6.1029H16.0354V7.34407C16.0354 7.50866 15.97 7.6665 15.8536 7.78288C15.7372 7.89926 15.5794 7.96465 15.4148 7.96465C15.2502 7.96465 15.0923 7.89926 14.976 7.78288C14.8596 7.6665 14.7942 7.50866 14.7942 7.34407V6.1029H13.553C13.3884 6.1029 13.2306 6.03752 13.1142 5.92114C12.9978 5.80476 12.9324 5.64691 12.9324 5.48232ZM21 9.20581C21 9.3704 20.9346 9.52824 20.8182 9.64463C20.7019 9.76101 20.544 9.82639 20.3794 9.82639H19.7588V10.447C19.7588 10.6116 19.6935 10.7694 19.5771 10.8858C19.4607 11.0022 19.3028 11.0676 19.1383 11.0676C18.9737 11.0676 18.8158 11.0022 18.6994 10.8858C18.5831 10.7694 18.5177 10.6116 18.5177 10.447V9.82639H17.8971C17.7325 9.82639 17.5747 9.76101 17.4583 9.64463C17.3419 9.52824 17.2765 9.3704 17.2765 9.20581C17.2765 9.04122 17.3419 8.88337 17.4583 8.76699C17.5747 8.65061 17.7325 8.58523 17.8971 8.58523H18.5177V7.96465C18.5177 7.80006 18.5831 7.64221 18.6994 7.52583C18.8158 7.40945 18.9737 7.34407 19.1383 7.34407C19.3028 7.34407 19.4607 7.40945 19.5771 7.52583C19.6935 7.64221 19.7588 7.80006 19.7588 7.96465V8.58523H20.3794C20.544 8.58523 20.7019 8.65061 20.8182 8.76699C20.9346 8.88337 21 9.04122 21 9.20581Z" fill="#1852F3"/>
  <path d="M17.0888 12.3909L13.0876 10.9124L11.6137 6.90811C11.5264 6.67099 11.3685 6.46635 11.1613 6.3218C10.954 6.17725 10.7074 6.09975 10.4548 6.09975C10.2021 6.09975 9.95552 6.17725 9.74828 6.3218C9.54104 6.46635 9.38313 6.67099 9.29584 6.90811L7.81266 10.9124L3.80836 12.3863C3.57124 12.4736 3.3666 12.6315 3.22205 12.8387C3.0775 13.046 3 13.2926 3 13.5452C3 13.7979 3.0775 14.0445 3.22205 14.2517C3.3666 14.459 3.57124 14.6169 3.80836 14.7042L7.81266 16.1873L9.28654 20.1916C9.37382 20.4288 9.53173 20.6334 9.73897 20.7779C9.94621 20.9225 10.1928 21 10.4455 21C10.6981 21 10.9447 20.9225 11.152 20.7779C11.3592 20.6334 11.5171 20.4288 11.6044 20.1916L13.0876 16.1873L17.0919 14.7135C17.329 14.6262 17.5336 14.4683 17.6782 14.261C17.8227 14.0538 17.9002 13.8072 17.9002 13.5545C17.9002 13.3019 17.8227 13.0553 17.6782 12.848C17.5336 12.6408 17.329 12.4829 17.0919 12.3956L17.0888 12.3909ZM12.3894 15.1184C12.3052 15.1494 12.2287 15.1984 12.1652 15.2619C12.1017 15.3254 12.0528 15.4019 12.0217 15.4861L10.4501 19.744L8.88161 15.4892C8.85061 15.4041 8.80135 15.3268 8.7373 15.2627C8.67324 15.1986 8.59593 15.1494 8.51081 15.1184L4.25595 13.5499L8.51081 11.9814C8.59593 11.9504 8.67324 11.9011 8.7373 11.837C8.80135 11.773 8.85061 11.6957 8.88161 11.6106L10.4501 7.3557L12.0186 11.6106C12.0497 11.6948 12.0986 11.7713 12.1621 11.8348C12.2256 11.8983 12.3021 11.9472 12.3863 11.9783L16.6443 13.5499L12.3894 15.1184ZM12.9324 5.48232C12.9324 5.31774 12.9978 5.15989 13.1142 5.04351C13.2306 4.92713 13.3884 4.86174 13.553 4.86174H14.7942V3.62058C14.7942 3.45599 14.8596 3.29815 14.976 3.18176C15.0923 3.06538 15.2502 3 15.4148 3C15.5794 3 15.7372 3.06538 15.8536 3.18176C15.97 3.29815 16.0354 3.45599 16.0354 3.62058V4.86174H17.2765C17.4411 4.86174 17.599 4.92713 17.7153 5.04351C17.8317 5.15989 17.8971 5.31774 17.8971 5.48232C17.8971 5.64691 17.8317 5.80476 17.7153 5.92114C17.599 6.03752 17.4411 6.1029 17.2765 6.1029H16.0354V7.34407C16.0354 7.50866 15.97 7.6665 15.8536 7.78288C15.7372 7.89926 15.5794 7.96465 15.4148 7.96465C15.2502 7.96465 15.0923 7.89926 14.976 7.78288C14.8596 7.6665 14.7942 7.50866 14.7942 7.34407V6.1029H13.553C13.3884 6.1029 13.2306 6.03752 13.1142 5.92114C12.9978 5.80476 12.9324 5.64691 12.9324 5.48232ZM21 9.20581C21 9.3704 20.9346 9.52824 20.8182 9.64463C20.7019 9.76101 20.544 9.82639 20.3794 9.82639H19.7588V10.447C19.7588 10.6116 19.6935 10.7694 19.5771 10.8858C19.4607 11.0022 19.3028 11.0676 19.1383 11.0676C18.9737 11.0676 18.8158 11.0022 18.6994 10.8858C18.5831 10.7694 18.5177 10.6116 18.5177 10.447V9.82639H17.8971C17.7325 9.82639 17.5747 9.76101 17.4583 9.64463C17.3419 9.52824 17.2765 9.3704 17.2765 9.20581C17.2765 9.04122 17.3419 8.88337 17.4583 8.76699C17.5747 8.65061 17.7325 8.58523 17.8971 8.58523H18.5177V7.96465C18.5177 7.80006 18.5831 7.64221 18.6994 7.52583C18.8158 7.40945 18.9737 7.34407 19.1383 7.34407C19.3028 7.34407 19.4607 7.40945 19.5771 7.52583C19.6935 7.64221 19.7588 7.80006 19.7588 7.96465V8.58523H20.3794C20.544 8.58523 20.7019 8.65061 20.8182 8.76699C20.9346 8.88337 21 9.04122 21 9.20581Z" fill="url(#paint0_linear_1362_1978)"/>
  <defs>
    <linearGradient id="paint0_linear_1362_1978" x1="19.2228" y1="3.25" x2="13.8634" y2="24.5173" gradientUnits="userSpaceOnUse">
      <stop stop-color="#ACC9FF"/>
      <stop offset="0.305" stop-color="#D2ECFF"/>
      <stop offset="0.653846" stop-color="#95FFD0" stop-opacity="0.13"/>
      <stop offset="0.899038" stop-color="#006CFF"/>
    </linearGradient>
  </defs>
</svg>